<?xml version="1.0" encoding="UTF-8" ?>
<svg version="1.1" width="64" height="64" xmlns="http://www.w3.org/2000/svg" shape-rendering="crispEdges">
<rect x="0" y="0" width="64" height="7" fill="#151515" />
<rect x="0" y="7" width="27" height="1" fill="#151515" />
<rect x="27" y="7" width="8" height="19" fill="#C27933" />
<rect x="35" y="7" width="29" height="1" fill="#151515" />
<rect x="0" y="8" width="24" height="1" fill="#151515" />
<rect x="24" y="8" width="3" height="17" fill="#C27933" />
<rect x="35" y="8" width="3" height="17" fill="#C27933" />
<rect x="38" y="8" width="26" height="1" fill="#151515" />
<rect x="0" y="9" width="22" height="1" fill="#151515" />
<rect x="22" y="9" width="2" height="15" fill="#C27933" />
<rect x="38" y="9" width="2" height="15" fill="#C27933" />
<rect x="40" y="9" width="24" height="1" fill="#151515" />
<rect x="0" y="10" width="21" height="1" fill="#151515" />
<rect x="21" y="10" width="1" height="14" fill="#C27933" />
<rect x="40" y="10" width="1" height="14" fill="#C27933" />
<rect x="41" y="10" width="23" height="1" fill="#151515" />
<rect x="0" y="11" width="20" height="1" fill="#151515" />
<rect x="20" y="11" width="1" height="12" fill="#C27933" />
<rect x="41" y="11" width="1" height="12" fill="#C27933" />
<rect x="42" y="11" width="22" height="1" fill="#151515" />
<rect x="0" y="12" width="19" height="1" fill="#151515" />
<rect x="19" y="12" width="1" height="11" fill="#C27933" />
<rect x="42" y="12" width="1" height="11" fill="#C27933" />
<rect x="43" y="12" width="21" height="1" fill="#151515" />
<rect x="0" y="13" width="18" height="1" fill="#151515" />
<rect x="18" y="13" width="1" height="10" fill="#C27933" />
<rect x="43" y="13" width="1" height="10" fill="#C27933" />
<rect x="44" y="13" width="20" height="1" fill="#151515" />
<rect x="0" y="14" width="17" height="1" fill="#151515" />
<rect x="17" y="14" width="1" height="8" fill="#C27933" />
<rect x="44" y="14" width="1" height="8" fill="#C27933" />
<rect x="45" y="14" width="19" height="1" fill="#151515" />
<rect x="0" y="15" width="16" height="2" fill="#151515" />
<rect x="16" y="15" width="1" height="6" fill="#C27933" />
<rect x="45" y="15" width="1" height="6" fill="#C27933" />
<rect x="46" y="15" width="18" height="2" fill="#151515" />
<rect x="0" y="17" width="15" height="2" fill="#151515" />
<rect x="15" y="17" width="1" height="24" fill="#C27933" />
<rect x="46" y="17" width="1" height="24" fill="#C27933" />
<rect x="47" y="17" width="17" height="2" fill="#151515" />
<rect x="0" y="19" width="14" height="45" fill="#151515" />
<rect x="14" y="19" width="1" height="20" fill="#C27933" />
<rect x="47" y="19" width="1" height="20" fill="#C27933" />
<rect x="48" y="19" width="16" height="45" fill="#151515" />
<rect x="16" y="21" width="1" height="5" fill="#151515" />
<rect x="45" y="21" width="1" height="5" fill="#151515" />
<rect x="17" y="22" width="1" height="5" fill="#151515" />
<rect x="44" y="22" width="1" height="5" fill="#151515" />
<rect x="18" y="23" width="3" height="4" fill="#151515" />
<rect x="41" y="23" width="3" height="4" fill="#151515" />
<rect x="21" y="24" width="3" height="4" fill="#151515" />
<rect x="38" y="24" width="3" height="4" fill="#151515" />
<rect x="24" y="25" width="2" height="5" fill="#151515" />
<rect x="26" y="25" width="1" height="1" fill="#C27933" />
<rect x="35" y="25" width="1" height="1" fill="#C27933" />
<rect x="36" y="25" width="2" height="5" fill="#151515" />
<rect x="16" y="26" width="1" height="17" fill="#C27933" />
<rect x="26" y="26" width="2" height="5" fill="#151515" />
<rect x="28" y="26" width="6" height="1" fill="#C27933" />
<rect x="34" y="26" width="2" height="5" fill="#151515" />
<rect x="45" y="26" width="1" height="17" fill="#C27933" />
<rect x="17" y="27" width="3" height="17" fill="#C27933" />
<rect x="20" y="27" width="1" height="1" fill="#151515" />
<rect x="28" y="27" width="2" height="37" fill="#151515" />
<rect x="30" y="27" width="2" height="12" fill="#C27933" />
<rect x="32" y="27" width="2" height="37" fill="#151515" />
<rect x="41" y="27" width="1" height="1" fill="#151515" />
<rect x="42" y="27" width="3" height="17" fill="#C27933" />
<rect x="20" y="28" width="2" height="19" fill="#C27933" />
<rect x="22" y="28" width="2" height="1" fill="#151515" />
<rect x="38" y="28" width="2" height="1" fill="#151515" />
<rect x="40" y="28" width="2" height="19" fill="#C27933" />
<rect x="22" y="29" width="2" height="20" fill="#C27933" />
<rect x="38" y="29" width="2" height="20" fill="#C27933" />
<rect x="24" y="30" width="2" height="21" fill="#C27933" />
<rect x="36" y="30" width="2" height="21" fill="#C27933" />
<rect x="26" y="31" width="1" height="22" fill="#C27933" />
<rect x="27" y="31" width="1" height="1" fill="#151515" />
<rect x="34" y="31" width="1" height="1" fill="#151515" />
<rect x="35" y="31" width="1" height="22" fill="#C27933" />
<rect x="27" y="32" width="1" height="22" fill="#C27933" />
<rect x="34" y="32" width="1" height="22" fill="#C27933" />
<rect x="14" y="39" width="1" height="25" fill="#151515" />
<rect x="30" y="39" width="2" height="25" fill="#151515" />
<rect x="47" y="39" width="1" height="25" fill="#151515" />
<rect x="15" y="41" width="1" height="23" fill="#151515" />
<rect x="46" y="41" width="1" height="23" fill="#151515" />
<rect x="16" y="43" width="1" height="21" fill="#151515" />
<rect x="45" y="43" width="1" height="21" fill="#151515" />
<rect x="17" y="44" width="1" height="20" fill="#151515" />
<rect x="18" y="44" width="2" height="1" fill="#C27933" />
<rect x="42" y="44" width="2" height="1" fill="#C27933" />
<rect x="44" y="44" width="1" height="20" fill="#151515" />
<rect x="18" y="45" width="1" height="19" fill="#151515" />
<rect x="19" y="45" width="1" height="1" fill="#C27933" />
<rect x="42" y="45" width="1" height="1" fill="#C27933" />
<rect x="43" y="45" width="1" height="19" fill="#151515" />
<rect x="19" y="46" width="1" height="18" fill="#151515" />
<rect x="42" y="46" width="1" height="18" fill="#151515" />
<rect x="20" y="47" width="1" height="17" fill="#151515" />
<rect x="21" y="47" width="1" height="1" fill="#C27933" />
<rect x="40" y="47" width="1" height="1" fill="#C27933" />
<rect x="41" y="47" width="1" height="17" fill="#151515" />
<rect x="21" y="48" width="1" height="16" fill="#151515" />
<rect x="40" y="48" width="1" height="16" fill="#151515" />
<rect x="22" y="49" width="1" height="15" fill="#151515" />
<rect x="23" y="49" width="1" height="1" fill="#C27933" />
<rect x="38" y="49" width="1" height="1" fill="#C27933" />
<rect x="39" y="49" width="1" height="15" fill="#151515" />
<rect x="23" y="50" width="1" height="14" fill="#151515" />
<rect x="38" y="50" width="1" height="14" fill="#151515" />
<rect x="24" y="51" width="1" height="13" fill="#151515" />
<rect x="25" y="51" width="1" height="1" fill="#C27933" />
<rect x="36" y="51" width="1" height="1" fill="#C27933" />
<rect x="37" y="51" width="1" height="13" fill="#151515" />
<rect x="25" y="52" width="1" height="12" fill="#151515" />
<rect x="36" y="52" width="1" height="12" fill="#151515" />
<rect x="26" y="53" width="1" height="11" fill="#151515" />
<rect x="35" y="53" width="1" height="11" fill="#151515" />
<rect x="27" y="54" width="1" height="10" fill="#151515" />
<rect x="34" y="54" width="1" height="10" fill="#151515" />
</svg>